# xmcd CD database file
#
# Track frame offsets:
#	150
#	12632
#	32827
#	61587
#	86170
#	115540
#	128957
#	151327
#	175672
#	202352
#	219290
#	245550
#
# Disc length: 3485 seconds
#
# Revision: 0
# Processed by: cddbd v1.5.2PL0 Copyright (c) Steve Scherf et al.
# Submitted via: CDex 1.51
#
DISCID=a20d9b0c
DTITLE=Paul Reid - I'm Sitting On Top Of the World
DYEAR=1994
DGENRE=Jazz
TTITLE0=I'm Sitting On Top Of The World
TTITLE1=Rittz, Ratz, Rotterdam Romp
TTITLE2=There's A Rainbow Round My Shoulder
TTITLE3=Everybody's Boogie
TTITLE4=You Made Me Love You
TTITLE5=I Love The Boogie Woogie On The 88
TTITLE6=What A Little Moonlight Can Do
TTITLE7=Barbados
TTITLE8=What A Wonderful World
TTITLE9=Virginia
TTITLE10=In The Mood
TTITLE11=Top Of The World
EXTD=YEAR: 1994
EXTT0=
EXTT1=
EXTT2=
EXTT3=
EXTT4=
EXTT5=
EXTT6=
EXTT7=
EXTT8=
EXTT9=
EXTT10=
EXTT11=
PLAYORDER=
